<?xml version="1.0"?>
<svg version="1.1" xmlns="http://www.w3.org/2000/svg" width="235px" height="65px" style="border:2px solid black"><path fill="#" d="M27.978515625,49.2890625l-4.8125-15.681640625l-0.123046875,0q0.259765625,4.78515625,0.259765625,6.384765625l0,9.296875l-3.787109375,0l0-19.98828125l5.76953125,0l4.73046875,15.28515625l0.08203125,0l5.017578125-15.28515625l5.76953125,0l0,19.98828125l-3.951171875,0l0-9.4609375q0-0.669921875,0.0205078125-1.544921875t0.1845703125-4.6484375l-0.123046875,0l-5.154296875,15.654296875l-3.8828125,0z M47.84060546875,49.2890625l0-19.98828125l4.23828125,0l0,19.98828125l-4.23828125,0z M76.7671484375,49.2890625l-5.38671875,0l-8.6953125-15.12109375l-0.123046875,0q0.259765625,4.005859375,0.259765625,5.71484375l0,9.40625l-3.787109375,0l0-19.98828125l5.345703125,0l8.681640625,14.970703125l0.095703125,0q-0.205078125-3.896484375-0.205078125-5.509765625l0-9.4609375l3.814453125,0l0,19.98828125z M100.30697265625,39.103515625q0,4.935546875-2.8095703125,7.560546875t-8.1142578125,2.625l-5.66015625,0l0-19.98828125l6.275390625,0q4.89453125,0,7.6015625,2.583984375t2.70703125,7.21875z M95.90462890625,39.212890625q0-6.439453125-5.6875-6.439453125l-2.255859375,0l0,13.015625l1.818359375,0q6.125,0,6.125-6.576171875z M110.612421875,38.70703125l1.39453125,0q1.955078125,0,2.92578125-0.7724609375t0.970703125-2.2490234375q0-1.490234375-0.8134765625-2.201171875t-2.5498046875-0.7109375l-1.927734375,0l0,5.93359375z M120.182734375,35.53515625q0,3.2265625-2.0166015625,4.935546875t-5.7353515625,1.708984375l-1.818359375,0l0,7.109375l-4.23828125,0l0-19.98828125l6.384765625,0q3.63671875,0,5.5302734375,1.5654296875t1.8935546875,4.6689453125z M144.02333984375,39.267578125q0,4.962890625-2.4609375,7.62890625t-7.0546875,2.666015625t-7.0546875-2.666015625t-2.4609375-7.65625t2.4677734375-7.6220703125t7.0751953125-2.6318359375t7.0478515625,2.65234375t2.4404296875,7.62890625z M129.43544921875,39.267578125q0,3.349609375,1.271484375,5.044921875t3.80078125,1.6953125q5.072265625,0,5.072265625-6.740234375q0-6.75390625-5.044921875-6.75390625q-2.529296875,0-3.814453125,1.7021484375t-1.28515625,5.0517578125z M169.5592578125,49.2890625l-4.826171875,0l-2.70703125-10.5q-0.150390625-0.560546875-0.5126953125-2.3173828125t-0.4169921875-2.3583984375q-0.08203125,0.73828125-0.41015625,2.3720703125t-0.505859375,2.3310546875l-2.693359375,10.47265625l-4.8125,0l-5.099609375-19.98828125l4.169921875,0l2.556640625,10.91015625q0.669921875,3.021484375,0.970703125,5.236328125q0.08203125-0.779296875,0.3759765625-2.4130859375t0.5537109375-2.5361328125l2.912109375-11.197265625l4.005859375,0l2.912109375,11.197265625q0.19140625,0.751953125,0.478515625,2.296875t0.4375,2.65234375q0.13671875-1.06640625,0.4375-2.6591796875t0.546875-2.5771484375l2.54296875-10.91015625l4.169921875,0z M190.59712890625,49.2890625l-11.51171875,0l0-19.98828125l11.51171875,0l0,3.47265625l-7.2734375,0l0,4.388671875l6.767578125,0l0,3.47265625l-6.767578125,0l0,5.154296875l7.2734375,0l0,3.5z M200.929921875,38.173828125l1.3671875,0q2.009765625,0,2.966796875-0.669921875t0.95703125-2.10546875q0-1.421875-0.9775390625-2.0234375t-3.0283203125-0.6015625l-1.28515625,0l0,5.400390625z M200.929921875,41.619140625l0,7.669921875l-4.23828125,0l0-19.98828125l5.82421875,0q4.07421875,0,6.029296875,1.4833984375t1.955078125,4.5048828125q0,1.763671875-0.970703125,3.1376953125t-2.748046875,2.1533203125q4.51171875,6.740234375,5.87890625,8.708984375l-4.703125,0l-4.771484375-7.669921875l-2.255859375,0z"/><path fill="#" d=""/></svg>
